# xmcd
#
# Track frame offsets:
#	150
#	5534
#	35874
#	37428
#	58706
#	60280
#	77790
#	109529
#	112080
#	124626
#	128718
#	151527
#	171132
#	200195
#	202258
#	238260
#	263049
#	266475
#
# Disc length: 3842 seconds
#
# Revision: 0
# Processed by: cddbd v1.5.1PL0 Copyright (c) Steve Scherf et al.
# Submitted via: EasyCDDAExtractor 7.5.2.1
#
DISCID=060f0012
DTITLE=Eric Clapton - LA 11/4/1999
DYEAR=1999
DGENRE=Bootleg
TTITLE0=Intro
TTITLE1=My Father's Eyes
TTITLE2=LA Interview #1
TTITLE3=Hoochie Coochie Man
TTITLE4=LA Interview #2
TTITLE5=Reconsider Baby
TTITLE6=She's Gone
TTITLE7=LA Interview #3
TTITLE8=Rambling On My Mind
TTITLE9=LA Interview #4
TTITLE10=Bell Bottom Blues
TTITLE11=Tears in Heaven
TTITLE12=Change the World
TTITLE13=LA Interview #5
TTITLE14=Gin House
TTITLE15=Cocaine
TTITLE16=LA Interview #6
TTITLE17=Layla
EXTD=
EXTT0=
EXTT1=
EXTT2=
EXTT3=
EXTT4=
EXTT5=
EXTT6=
EXTT7=
EXTT8=
EXTT9=
EXTT10=
EXTT11=
EXTT12=
EXTT13=
EXTT14=
EXTT15=
EXTT16=
EXTT17=
PLAYORDER=
